<svg width="24" height="24" viewBox="0 0 24 24" fill="none" xmlns="http://www.w3.org/2000/svg">
<mask id="mask0_8053_1589" style="mask-type:alpha" maskUnits="userSpaceOnUse" x="0" y="0" width="24" height="24">
<rect x="0.5" y="0.5" width="23" height="23" fill="#363636" stroke="#707070"/>
</mask>
<g mask="url(#mask0_8053_1589)">
<path d="M0.00146484 6.24604C0.00146484 13.8837 10.1283 24.0005 17.7559 24.0005C19.4254 24.0005 20.9849 23.3707 22.1345 22.221L23.1342 21.0714C24.2939 19.9118 24.2939 17.9524 23.0842 16.7428C23.0543 16.7128 20.645 14.8633 20.645 14.8633C19.4454 13.7237 17.556 13.7237 16.3664 14.8633L14.9068 16.033C11.7078 14.6734 9.43851 12.3941 7.97897 9.08515L9.13861 7.62561C10.2882 6.43598 10.2882 4.53657 9.13861 3.34694C9.13861 3.34694 7.28918 0.937695 7.2592 0.907705C6.04957 -0.301917 4.09019 -0.301917 2.88057 0.907705L1.83089 1.81742C0.631268 3.00705 0.00146484 4.56656 0.00146484 6.23604V6.24604Z" fill="#363636"/>
</g>
</svg>
