<svg width="32" height="32" viewBox="0 0 32 32" fill="none" xmlns="http://www.w3.org/2000/svg">
<mask id="mask0_8053_1538" style="mask-type:alpha" maskUnits="userSpaceOnUse" x="0" y="0" width="32" height="33">
<rect x="0.5" y="0.500977" width="31" height="31" fill="white" stroke="#707070"/>
</mask>
<g mask="url(#mask0_8053_1538)">
<path d="M32 16.001C32 24.8377 24.8367 32.001 16 32.001C7.16331 32.001 0 24.8377 0 16.001C0 7.16429 7.16331 0.000976562 16 0.000976562C24.8367 0.000976562 32 7.16429 32 16.001Z" fill="#4A7AFF"/>
<path d="M16.7021 31.9846C25.2129 31.6172 32 24.602 32 16.001C32 15.9387 31.9983 15.8767 31.9975 15.8144L20.8914 4.70801L9.01636 17.1201L15.6142 23.718L12.572 27.8545L16.7021 31.9846Z" fill="#0053BF"/>
<path d="M20.8914 4.70754V8.33059C20.8914 8.33059 16.7317 7.72683 16.7317 10.4104V13.094H20.4888L20.0193 17.1865H16.7317V27.854H12.572V17.1865L9.01611 17.1194V13.094H12.5049V10.0078C12.5049 10.0078 12.2747 5.41677 16.7988 4.57351C18.6775 4.22316 20.8914 4.70754 20.8914 4.70754Z" fill="white"/>
<path d="M20.8914 8.33059V4.70754C20.8914 4.70754 18.6775 4.22316 16.7988 4.57351C16.5054 4.62819 16.2324 4.69899 15.9778 4.78273V27.854H16.7317V17.1865H20.019L20.4888 13.094H16.7317C16.7317 13.094 16.7317 13.094 16.7317 10.4104C16.7317 7.72683 20.8914 8.33059 20.8914 8.33059Z" fill="#DCE1EB"/>
</g>
</svg>
