<svg width="24" height="24" viewBox="0 0 24 24" fill="none" xmlns="http://www.w3.org/2000/svg">
<mask id="mask0_8053_1395" style="mask-type:alpha" maskUnits="userSpaceOnUse" x="0" y="0" width="24" height="25">
<rect x="0.5" y="0.500977" width="23" height="23" fill="#363636" stroke="#707070"/>
</mask>
<g mask="url(#mask0_8053_1395)">
<path d="M17.9728 15.9314C17.5234 15.4805 16.9131 15.227 16.2765 15.227C15.64 15.227 15.0296 15.4805 14.5803 15.9314L13.4228 17.0888C12.1196 16.2617 10.9122 15.2926 9.8228 14.1992C8.73172 13.1077 7.7628 11.9005 6.93319 10.5992L8.09062 9.44171C8.54152 8.99238 8.79496 8.38201 8.79496 7.74546C8.79496 7.1089 8.54152 6.49854 8.09063 6.04921L5.83162 3.79819C5.38847 3.34563 4.78073 3.09217 4.14734 3.09574C3.50968 3.09418 2.89772 3.34701 2.4471 3.79819L1.3615 4.8758C0.313464 6.00265 -0.16787 7.5435 0.0523994 9.06654C0.307835 12.0599 2.27149 15.66 5.2968 18.6933C8.32211 21.7265 11.9621 23.6822 14.9554 23.9696C15.1788 23.9815 15.4026 23.9815 15.626 23.9696C16.9277 24.0242 18.1965 23.5524 19.1462 22.6605L20.2238 21.5749C20.675 21.1243 20.9278 20.5123 20.9262 19.8746C20.9298 19.2413 20.6763 18.6335 20.2238 18.1904L17.9728 15.9314ZM19.0983 20.4494L18.0127 21.527C17.2005 22.2038 16.1347 22.4951 15.0911 22.3252C12.4969 22.1017 9.19219 20.2658 6.46223 17.5358C3.73226 14.8058 1.89632 11.5251 1.64887 8.93084C1.47466 7.8871 1.76637 6.81944 2.4471 6.0093L3.57261 4.9237C3.72326 4.77428 3.92719 4.69098 4.13936 4.69221C4.35154 4.69098 4.55547 4.77428 4.70611 4.9237L6.96511 7.20665C7.27461 7.51799 7.27461 8.02082 6.96511 8.33216L5.36864 9.92863C5.11175 10.1843 5.0593 10.5809 5.24093 10.8945C6.19673 12.5217 7.35843 14.0187 8.69729 15.3487C10.0272 16.6875 11.5243 17.8492 13.1514 18.805C13.4651 18.9866 13.8617 18.9342 14.1173 18.6773L15.7138 17.0808C16.0251 16.7713 16.5279 16.7713 16.8393 17.0808L19.0983 19.3398C19.2477 19.4905 19.331 19.6944 19.3298 19.9066C19.3248 20.1104 19.2419 20.3046 19.0983 20.4494Z" fill="#363636"/>
<path d="M20.4873 3.52674C18.2467 1.27758 15.2008 0.0161133 12.026 0.022485C11.5852 0.022485 11.2278 0.379867 11.2278 0.82072C11.2278 1.26157 11.5852 1.61895 12.026 1.61895C14.7938 1.61895 17.4466 2.72439 19.3952 4.68957C21.3435 6.65441 22.4265 9.31647 22.4031 12.0838C22.4031 12.5247 22.7605 12.882 23.2013 12.8821C23.6422 12.8821 23.9995 12.5247 23.9995 12.0838C24.0304 8.87457 22.7639 5.78887 20.4873 3.52674Z" fill="#363636"/>
<path d="M15.9453 8.09269C16.8605 9.00234 17.3699 10.2428 17.3582 11.5331C17.3582 11.9739 17.7155 12.3313 18.1564 12.3313C18.5972 12.3313 18.9546 11.9739 18.9546 11.5331C18.976 9.82566 18.3126 8.1808 17.1127 6.9659C15.9128 5.75099 14.2763 5.06725 12.5687 5.06738C12.1279 5.06738 11.7705 5.42477 11.7705 5.86562C11.7705 6.30647 12.1279 6.66385 12.5687 6.66385C13.8392 6.67342 15.0538 7.18741 15.9453 8.09269Z" fill="#363636"/>
</g>
</svg>
