<svg width="32" height="32" viewBox="0 0 32 32" fill="none" xmlns="http://www.w3.org/2000/svg">
<mask id="mask0_8053_1555" style="mask-type:alpha" maskUnits="userSpaceOnUse" x="0" y="0" width="32" height="33">
<rect x="0.5" y="0.500977" width="31" height="31" fill="white" stroke="#707070"/>
</mask>
<g mask="url(#mask0_8053_1555)">
<path d="M32 16.001C32 24.8376 24.8367 32.001 16 32.001C7.16331 32.001 0 24.8376 0 16.001C0 7.16428 7.16331 0.000976562 16 0.000976562C24.8367 0.000976562 32 7.16428 32 16.001Z" fill="#1BD741"/>
<path d="M32 16.0014C32 15.7993 31.9951 15.5986 31.9876 15.3984C28.3775 11.789 24.0784 7.49267 24.0784 7.49267C22.0974 5.39575 19.2923 4.08496 16.1865 4.08496C10.1985 4.08496 5.32715 8.95629 5.32715 14.9443C5.32715 17.4897 6.21557 19.939 7.8374 21.8874L7.37134 26.1753L12.8957 31.6995C13.9001 31.897 14.9377 32.0015 16 32.0015C24.8367 32.0015 32 24.8381 32 16.0014Z" fill="#009E20"/>
<path d="M21.6136 16.9248L20.4422 15.9285C20.0022 15.554 19.3426 15.6072 18.9686 16.0474L18.0362 17.1431L13.6746 13.4324L14.6075 12.3364C14.9812 11.897 14.928 11.2373 14.4886 10.8628L13.3169 9.86648C12.8775 9.49245 12.2176 9.54519 11.8436 9.98513L11.3841 10.5257C10.3055 11.793 10.4585 13.6946 11.7264 14.7732L17.0252 19.281C18.2925 20.3596 20.1944 20.2066 21.2725 18.9387L21.7322 18.3987C22.1062 17.9585 22.0535 17.2988 21.6136 16.9248Z" fill="white"/>
<path d="M16.1865 4.08398C10.1985 4.08398 5.32715 8.95532 5.32715 14.9434C5.32715 17.4888 6.21557 19.938 7.8374 21.8865L7.37134 26.1743L11.9744 24.9546C13.3083 25.5173 14.7236 25.8022 16.1865 25.8022C22.1743 25.8022 27.0459 20.9309 27.0459 14.9434C27.0459 8.95534 22.1743 4.08398 16.1865 4.08398ZM16.1865 23.9587C14.8774 23.9587 13.615 23.6843 12.4341 23.143L12.1335 23.0054L9.49389 23.7048L9.75781 21.2771L9.48217 20.9707C7.99145 19.3135 7.1704 17.1731 7.1704 14.9433C7.1704 9.97191 11.2151 5.92722 16.1865 5.92722C21.158 5.92722 25.2024 9.97189 25.2024 14.9433C25.2026 19.9143 21.158 23.9587 16.1865 23.9587Z" fill="white"/>
</g>
</svg>
