<svg width="32" height="32" viewBox="0 0 32 32" fill="none" xmlns="http://www.w3.org/2000/svg">
<mask id="mask0_8053_1549" style="mask-type:alpha" maskUnits="userSpaceOnUse" x="0" y="0" width="32" height="33">
<path d="M16 31.501C7.43959 31.501 0.5 24.5614 0.5 16.001C0.5 7.44056 7.43959 0.500977 16 0.500977C24.5604 0.500977 31.5 7.44056 31.5 16.001C31.5 24.5614 24.5604 31.501 16 31.501Z" fill="white" stroke="#707070"/>
</mask>
<g mask="url(#mask0_8053_1549)">
<path d="M0 12.001C0 5.37356 5.37258 0.000976562 12 0.000976562H20C26.6274 0.000976562 32 5.37356 32 12.001V20.001C32 26.6284 26.6274 32.001 20 32.001H12C5.37258 32.001 0 26.6284 0 20.001V12.001Z" fill="url(#paint0_radial_8053_1549)"/>
<path opacity="0.1" d="M28.0422 5.47466C25.7095 9.75677 22.4106 14.1736 18.2885 18.2957C14.1664 22.4178 9.74953 25.7105 5.47374 28.0431C5.20567 27.8101 4.94532 27.5673 4.69269 27.3147C-1.55817 21.0688 -1.55959 10.9381 4.68793 4.68885C10.9354 -1.56041 21.0661 -1.56183 27.3153 4.68569C27.5664 4.93992 27.8092 5.20238 28.0422 5.47466Z" fill="white"/>
<path d="M24.4213 24.4218V18.245C24.4213 15.2218 23.7708 12.8955 20.2382 12.8955C18.5392 12.8955 17.4003 13.826 16.935 14.7102H16.8866V13.1776H13.5371V24.4218H17.0234V18.8534C17.0234 17.3797 17.3013 15.9692 19.1287 15.9692C20.9561 15.9692 20.9434 17.6534 20.9434 18.9481V24.4218L24.4213 24.4218Z" fill="white"/>
<path d="M7.85693 13.1777H11.3496V24.4219H7.85693V13.1777Z" fill="white"/>
<path d="M9.60221 7.58011C8.7788 7.57584 8.03426 8.06902 7.71698 8.82886C7.39971 9.5887 7.57246 10.4649 8.1544 11.0474C8.73635 11.63 9.61237 11.8037 10.3725 11.4872C11.1327 11.1707 11.6267 10.4267 11.6233 9.60326C11.6233 8.48673 10.7187 7.58127 9.60221 7.58011Z" fill="white"/>
</g>
<defs>
<radialGradient id="paint0_radial_8053_1549" cx="0" cy="0" r="1" gradientUnits="userSpaceOnUse" gradientTransform="translate(0 0.000976562) scale(16)">
<stop offset="1" stop-color="#1565C0"/>
<stop stop-color="#42A5F5"/>
</radialGradient>
</defs>
</svg>
