<svg width="24" height="24" viewBox="0 0 24 24" fill="none" xmlns="http://www.w3.org/2000/svg">
<mask id="mask0_8053_1413" style="mask-type:alpha" maskUnits="userSpaceOnUse" x="0" y="0" width="24" height="25">
<rect x="0.5" y="0.500977" width="23" height="23" fill="#363636" stroke="#707070"/>
</mask>
<g mask="url(#mask0_8053_1413)">
<path d="M19.1776 2.97408C17.2604 1.05684 14.7113 0.000976562 11.9999 0.000976562C9.28859 0.000976562 6.73942 1.05684 4.82223 2.97408C2.90498 4.89137 1.84912 7.44044 1.84912 10.1518C1.84912 15.6367 7.0353 20.1988 9.82151 22.6498C10.2087 22.9903 10.5431 23.2845 10.8095 23.5333C11.1432 23.8451 11.5716 24.001 11.9999 24.001C12.4283 24.001 12.8566 23.8451 13.1904 23.5333C13.4568 23.2844 13.7911 22.9903 14.1783 22.6498C16.9645 20.1988 22.1507 15.6367 22.1507 10.1518C22.1507 7.44044 21.0949 4.89137 19.1776 2.97408ZM13.2497 21.5942C12.8541 21.9423 12.5124 22.2429 12.2307 22.506C12.1012 22.6268 11.8986 22.6268 11.7691 22.506C11.4874 22.2428 11.1457 21.9422 10.75 21.5942C8.13063 19.29 3.25491 15.001 3.25491 10.1518C3.25491 5.32984 7.17785 1.4069 11.9998 1.4069C16.8218 1.4069 20.7447 5.32984 20.7447 10.1518C20.7448 15.001 15.8691 19.29 13.2497 21.5942Z" fill="#363636"/>
<path d="M12 5.29492C9.53334 5.29492 7.52661 7.3016 7.52661 9.76822C7.52661 12.2348 9.53334 14.2415 12 14.2415C14.4666 14.2415 16.4733 12.2348 16.4733 9.76822C16.4733 7.3016 14.4666 5.29492 12 5.29492ZM12 12.8356C10.3086 12.8356 8.93249 11.4595 8.93249 9.76817C8.93249 8.07682 10.3086 6.70075 12 6.70075C13.6914 6.70075 15.0674 8.07682 15.0674 9.76817C15.0674 11.4595 13.6914 12.8356 12 12.8356Z" fill="#363636"/>
</g>
</svg>
