<svg width="32" height="32" viewBox="0 0 32 32" fill="none" xmlns="http://www.w3.org/2000/svg">
<mask id="mask0_8053_1542" style="mask-type:alpha" maskUnits="userSpaceOnUse" x="0" y="0" width="32" height="33">
<rect x="0.5" y="0.500977" width="31" height="31" fill="white" stroke="#707070"/>
</mask>
<g mask="url(#mask0_8053_1542)">
<circle cx="16" cy="16.001" r="16" fill="url(#paint0_linear_8053_1542)"/>
<path d="M19.3991 7.1123H12.6079C9.57861 7.1123 7.11816 9.57275 7.11816 12.6021V19.3932C7.11816 22.4225 9.57861 24.883 12.6079 24.883H19.3991C22.4284 24.883 24.8888 22.4225 24.8888 19.3932V12.6021C24.8888 9.57275 22.4284 7.1123 19.3991 7.1123ZM22.9048 19.4003C22.9048 21.3345 21.3333 22.9132 19.3919 22.9132H12.6008C10.6666 22.9132 9.08794 21.3416 9.08794 19.4003V12.6092C9.08794 10.675 10.6595 9.0963 12.6008 9.0963H19.3919C21.3262 9.0963 22.9048 10.6679 22.9048 12.6092V19.4003Z" fill="white"/>
<path d="M16.0001 11.457C13.4969 11.457 11.4561 13.4979 11.4561 16.001C11.4561 18.5041 13.4969 20.545 16.0001 20.545C18.5032 20.545 20.5441 18.5041 20.5441 16.001C20.5441 13.4979 18.5032 11.457 16.0001 11.457ZM16.0001 18.7601C14.4783 18.7601 13.2409 17.5228 13.2409 16.001C13.2409 14.4793 14.4783 13.2419 16.0001 13.2419C17.5218 13.2419 18.7592 14.4793 18.7592 16.001C18.7592 17.5228 17.5218 18.7601 16.0001 18.7601Z" fill="white"/>
<circle cx="20.7869" cy="12.4877" r="0.767911" transform="rotate(-9.20797 20.7869 12.4877)" fill="white"/>
</g>
<defs>
<linearGradient id="paint0_linear_8053_1542" x1="3.81717" y1="28.1838" x2="3.81717" y2="5.44602" gradientUnits="userSpaceOnUse">
<stop offset="1" stop-color="#9000DC"/>
<stop offset="0.5" stop-color="#FE2181"/>
<stop offset="0.3762" stop-color="#FE5F5E"/>
<stop offset="0.2481" stop-color="#FE983D"/>
<stop offset="0.1381" stop-color="#FEC125"/>
<stop offset="0.05185" stop-color="#FEDB16"/>
<stop stop-color="#FEE411"/>
</linearGradient>
</defs>
</svg>
