<svg width="28" height="28" viewBox="0 0 28 28" fill="none" xmlns="http://www.w3.org/2000/svg">
<mask id="mask0_8053_1569" style="mask-type:alpha" maskUnits="userSpaceOnUse" x="0" y="0" width="28" height="28">
<rect width="28" height="28" fill="white"/>
</mask>
<g mask="url(#mask0_8053_1569)">
<path d="M4.47498 17.8978C5.24966 18.5908 6.12817 19.1403 7.06968 19.5533L12.0211 16.4441C13.0454 15.7977 14.4175 15.9506 15.275 16.8128L16.9398 18.4776C19.4354 16.6378 20.9999 13.6942 20.9999 10.4998C20.9999 5.03158 16.5513 0.583008 11.0831 0.583008C5.61483 0.583008 1.16626 5.03157 1.16626 10.4998C1.16626 13.322 2.37144 16.0182 4.47498 17.8978ZM11.5264 11.3748H10.6397C9.27588 11.3748 8.16637 10.2653 8.16637 8.90147C8.16637 7.67528 9.05071 6.6661 10.2081 6.46076V5.54141C10.2081 5.05841 10.6001 4.6664 11.0831 4.6664C11.5661 4.6664 11.9581 5.05841 11.9581 5.54141V6.41643H13.1248C13.6078 6.41643 13.9998 6.80843 13.9998 7.29144C13.9998 7.77445 13.6078 8.16645 13.1248 8.16645H10.6397C10.2407 8.16645 9.91639 8.49079 9.91639 8.8898C9.91639 9.30047 10.2407 9.62481 10.6397 9.62481H11.5264C12.8903 9.62481 13.9998 10.7343 13.9998 12.0982C13.9998 13.3244 13.1154 14.3335 11.9581 14.5389V15.4571C11.9581 15.9401 11.5661 16.3321 11.0831 16.3321C10.6001 16.3321 10.2081 15.9401 10.2081 15.4571V14.5832H9.04138C8.55837 14.5832 8.16637 14.1912 8.16637 13.7082C8.16637 13.2252 8.55837 12.8332 9.04138 12.8332H11.5264C11.9254 12.8332 12.2498 12.5089 12.2498 12.1098C12.2498 11.6992 11.9254 11.3748 11.5264 11.3748Z" fill="white"/>
<path d="M26.8333 13.4165H22.1666C21.6952 13.4165 21.2682 13.7012 21.0886 14.1363C20.9077 14.5727 21.0081 15.0744 21.3417 15.408L22.8503 16.9166L18.0832 21.6836L14.2413 17.8417C13.8598 17.4579 13.2601 17.3914 12.8028 17.6749L0.552584 25.2584C0.00424218 25.5979 -0.16376 26.3165 0.174578 26.8637C0.395081 27.2207 0.776587 27.4167 1.16743 27.4167C1.37743 27.4167 1.5886 27.3607 1.77994 27.2417L13.2438 20.1448L17.2572 24.1582C17.7133 24.6143 18.4507 24.6143 18.9069 24.1582L24.4999 18.5663L26.0085 20.0748C26.2313 20.2976 26.53 20.4166 26.8333 20.4166C26.9838 20.4166 27.1355 20.3874 27.2802 20.3279C27.7165 20.1471 28 19.7213 28 19.2499V14.5832C28 13.9392 27.4785 13.4165 26.8333 13.4165Z" fill="white"/>
</g>
</svg>
