<svg width="24" height="24" viewBox="0 0 24 24" fill="none" xmlns="http://www.w3.org/2000/svg">
<mask id="mask0_8053_1586" style="mask-type:alpha" maskUnits="userSpaceOnUse" x="0" y="0" width="24" height="24">
<rect x="0.5" y="0.5" width="23" height="23" fill="#363636" stroke="#707070"/>
</mask>
<g mask="url(#mask0_8053_1586)">
<path d="M18.5 2H18V1.5C18 0.671573 17.3284 0 16.5 0C15.6716 0 15 0.671573 15 1.5V2H9V1.5C9 0.671573 8.32843 0 7.5 0C6.67157 0 6 0.671573 6 1.5V2H5.5C2.46243 2 -4.76837e-07 4.46243 0 7.5V18.5C0 21.5376 2.46243 24 5.5 24H18.5C21.5376 24 24 21.5376 24 18.5V7.5C24 4.46243 21.5376 2 18.5 2ZM18.5 21H5.5C4.11929 21 3 19.8807 3 18.5V10H21V18.5C21 19.8807 19.8807 21 18.5 21Z" fill="#363636"/>
</g>
</svg>
