<svg width="32" height="32" viewBox="0 0 32 32" fill="none" xmlns="http://www.w3.org/2000/svg">
<mask id="mask0_8053_1552" style="mask-type:alpha" maskUnits="userSpaceOnUse" x="0" y="0" width="32" height="33">
<rect x="0.5" y="0.500977" width="31" height="31" fill="white" stroke="#707070"/>
</mask>
<g mask="url(#mask0_8053_1552)">
<circle cx="16" cy="16.001" r="16" fill="#03A9F4"/>
<path opacity="0.49" d="M32 16.0006C32 15.0085 31.9086 14.0206 31.7269 13.0474L26.3916 7.71374C26.3916 7.71374 24.5621 8.57473 23.5376 8.78996C22.7326 7.92897 21.5617 7.42676 20.2444 7.42676C17.3403 7.42676 15.2823 10.0081 15.8537 12.808C12.1216 12.5927 8.75523 10.8707 6.56003 8.28775C6.17967 8.94155 5.97777 9.68382 5.97455 10.4402C5.97456 11.9469 6.77954 13.3102 7.95043 14.0277C7.22804 14.0253 6.51986 13.8269 5.90134 13.4537C5.88764 15.545 7.42191 17.3971 9.48719 17.7587C8.83221 17.8872 8.0984 17.9922 7.43817 17.8304C8.06993 19.634 9.77161 20.8422 11.6827 20.8439C9.88713 22.1851 7.2776 23.0799 5.02319 22.6376L14.2956 31.9101C14.8617 31.9703 15.4307 32.0005 16 32.0006C24.8366 32.0006 32 24.8371 32 16.0006Z" fill="url(#paint0_linear_8053_1552)"/>
<path fill-rule="evenodd" clip-rule="evenodd" d="M23.5376 8.78996C22.7326 7.92897 21.5617 7.42676 20.2444 7.42676C17.3403 7.42676 15.2823 10.0081 15.8537 12.8079C12.1216 12.5927 8.75523 10.8707 6.56003 8.28775C6.17967 8.94155 5.97777 9.68382 5.97456 10.4402C5.97456 11.9469 6.77955 13.3102 7.95043 14.0277C7.22805 14.0253 6.51986 13.8269 5.90134 13.4537C5.88764 15.545 7.42191 17.3971 9.48719 17.7587C8.83222 17.8871 8.0984 17.9922 7.43817 17.8304C8.06994 19.634 9.77161 20.8422 11.6827 20.8439C9.88713 22.1851 7.2776 23.0799 5.02319 22.6376C9.41744 25.3504 15.4232 25.2321 19.6124 22.1651C22.9902 19.6922 24.7086 15.7803 24.7086 11.6599C25.5685 11.0322 26.3327 10.283 26.9772 9.43572C26.1722 9.7945 25.294 10.0097 24.416 10.1532C25.294 9.57921 26.0259 8.79002 26.3918 7.71374C26.3918 7.71374 24.5621 8.57473 23.5376 8.78996Z" fill="white"/>
</g>
<defs>
<linearGradient id="paint0_linear_8053_1552" x1="7.68962" y1="7.15796" x2="7.68962" y2="27.0482" gradientUnits="userSpaceOnUse">
<stop offset="1" stop-color="#1D1D1B" stop-opacity="0"/>
<stop offset="0.75" stop-color="#1D1D1B" stop-opacity="0.427451"/>
<stop offset="0.369" stop-color="#1D1D1B" stop-opacity="0.854902"/>
<stop stop-color="#1D1D1B"/>
</linearGradient>
</defs>
</svg>
