<svg width="24" height="24" viewBox="0 0 24 24" fill="none" xmlns="http://www.w3.org/2000/svg">
<mask id="mask0_8053_1583" style="mask-type:alpha" maskUnits="userSpaceOnUse" x="0" y="0" width="24" height="24">
<rect x="0.5" y="0.5" width="23" height="23" fill="#363636" stroke="#707070"/>
</mask>
<g mask="url(#mask0_8053_1583)">
<path d="M7.89482 16.1049C7.30868 15.5198 7.30868 14.5686 7.89482 13.9835C8.48095 13.3973 9.43017 13.3973 10.0163 13.9835C11.3426 15.3098 13.6571 15.3108 14.9834 13.9835L19.9736 8.99331C21.3429 7.624 21.3429 5.39549 19.9736 4.02617C18.6043 2.65686 16.3758 2.65686 15.0064 4.02617C14.4203 4.61231 13.4711 4.61231 12.885 4.02617C12.2988 3.44104 12.2988 2.48982 12.885 1.90469C15.4235 -0.634896 19.5565 -0.634896 22.0951 1.90469C24.6347 4.44427 24.6347 8.57521 22.0951 11.1148L17.1049 16.1049C15.8346 17.3752 14.1673 18.0094 12.4999 18.0094C10.8325 18.0094 9.16411 17.3742 7.89482 16.1049ZM6.5105 23.9998C8.17788 23.9998 9.84526 23.3646 11.1156 22.0953C11.7017 21.5102 11.7017 20.559 11.1156 19.9738C10.5294 19.3877 9.5802 19.3877 8.99407 19.9738C7.62375 21.3441 5.39524 21.3431 4.02693 19.9738C2.65762 18.6045 2.65762 16.376 4.02693 15.0067L8.98907 10.0446C10.3594 8.67424 12.5879 8.67424 13.9562 10.0446C14.5423 10.6307 15.4916 10.6307 16.0777 10.0446C16.6638 9.45942 16.6638 8.5082 16.0777 7.92307C13.5381 5.38348 9.40716 5.38348 6.86758 7.92307L1.90444 12.8852C-0.63514 15.4248 -0.63514 19.5557 1.90444 22.0953C3.17473 23.3656 4.84212 23.9998 6.5095 23.9998H6.5105Z" fill="#363636"/>
</g>
</svg>
