<svg width="24" height="24" viewBox="0 0 24 24" fill="none" xmlns="http://www.w3.org/2000/svg">
<mask id="mask0_8053_1403" style="mask-type:alpha" maskUnits="userSpaceOnUse" x="0" y="0" width="24" height="25">
<rect x="0.5" y="0.500977" width="23" height="23" fill="#363636" stroke="#707070"/>
</mask>
<g mask="url(#mask0_8053_1403)">
<path d="M17.8256 14.2185L15.9844 12.8099C15.3542 12.3299 14.4666 12.3886 13.905 12.9473L13.1855 13.6668C12.636 13.5305 12.1248 13.2704 11.6911 12.9065L11.6283 12.8535C11.4535 12.7066 11.2918 12.5447 11.145 12.3698L11.0939 12.3088C10.7297 11.8749 10.4695 11.3634 10.3331 10.8135L11.0522 10.0945C11.6105 9.53352 11.6697 8.64674 11.191 8.01651L9.78236 6.17714C9.31938 5.56992 8.50071 5.35894 7.8019 5.66667L7.59283 5.76042C6.3626 6.30243 5.5571 7.50735 5.52659 8.85135C5.48098 11.0775 6.24541 13.2445 7.67768 14.9493L7.77143 15.0585C8.12754 15.4822 8.51965 15.8743 8.9433 16.2304L9.05252 16.3242C10.7085 17.7137 12.8008 18.4759 14.9625 18.4771C15.025 18.4771 15.0889 18.4771 15.1542 18.4771C16.4987 18.4456 17.7035 17.6385 18.2442 16.4071L18.338 16.1981C18.6444 15.4991 18.4328 14.6811 17.8256 14.2185ZM17.2195 15.7101L17.1258 15.9187C16.7753 16.7145 15.9959 17.2356 15.1266 17.2556C15.0708 17.2556 15.015 17.2556 14.9597 17.2556C13.0854 17.2547 11.2711 16.5942 9.83486 15.3899L9.72565 15.2962C9.35571 14.9852 9.01333 14.6428 8.70237 14.2729L8.60862 14.1632C7.36554 12.6836 6.70254 10.8027 6.74299 8.87057C6.76287 8.00109 7.28398 7.22156 8.07987 6.87089L8.28893 6.77714C8.47465 6.69665 8.6913 6.75426 8.81252 6.91635L10.2211 8.75573C10.3313 8.90015 10.3179 9.10373 10.1897 9.23244L9.23908 10.1835C9.10047 10.3221 9.03701 10.5188 9.06846 10.7123C9.21162 11.5899 9.5891 12.4127 10.1611 13.0935L10.2122 13.154C10.404 13.3823 10.6153 13.5936 10.8436 13.7854L10.9064 13.8384C11.5871 14.4096 12.4093 14.7866 13.2863 14.9296C13.4799 14.9612 13.6768 14.8977 13.8155 14.759L14.7666 13.8079C14.8954 13.6799 15.0988 13.6665 15.2433 13.7765L17.0845 15.1884C17.2441 15.3106 17.2997 15.5258 17.2195 15.7101Z" fill="#363636"/>
<path d="M20.4844 3.51664C18.2392 1.25876 15.1841 -0.00718707 12 0.00101618C5.91905 0.000734959 0.799135 4.5491 0.08298 10.5877C-0.212941 13.1215 0.30137 15.6839 1.55204 17.9072L0.539542 21.3933C0.282714 22.2782 0.791822 23.2037 1.67668 23.4605C1.98043 23.5487 2.30298 23.5487 2.60673 23.4605L6.09375 22.4489C7.90134 23.4666 9.94068 24.0011 12.015 24.001C18.6424 23.9917 24.0074 18.6116 23.9981 11.9842C23.9937 8.80788 22.7301 5.76288 20.4844 3.51664ZM19.6233 19.6247C17.917 21.3438 15.6765 22.431 13.2703 22.7077C10.9117 22.9839 8.52778 22.478 6.48469 21.2677C6.33957 21.1812 6.16505 21.1588 6.00282 21.2058L2.26688 22.291C2.02843 22.3601 1.7791 22.2228 1.71001 21.9843C1.68634 21.9026 1.68634 21.8159 1.71001 21.7341L2.79516 17.9977C2.84223 17.8355 2.81982 17.6609 2.73329 17.5158C1.52303 15.4727 1.0171 13.0888 1.29329 10.7302C1.93721 5.30529 6.537 1.21944 12 1.21976C17.9543 1.21976 22.7812 6.04666 22.7813 12.001C22.7813 14.8605 21.6453 17.6028 19.6233 19.6247Z" fill="#363636"/>
</g>
</svg>
